<svg xmlns="http://www.w3.org/2000/svg" version="1.1" xmlns:xlink="http://www.w3.org/1999/xlink" xmlns:svgjs="http://svgjs.dev/svgjs" width="2000" height="565" viewBox="0 0 2000 565"><g transform="matrix(1,0,0,1,-1.2121212121212466,-0.3626361031518286)"><svg viewBox="0 0 396 112" data-background-color="#ffffff" preserveAspectRatio="xMidYMid meet" height="565" width="2000" xmlns="http://www.w3.org/2000/svg" xmlns:xlink="http://www.w3.org/1999/xlink"><g id="tight-bounds" transform="matrix(1,0,0,1,0.2400000000000091,0.0718853868194742)"><svg viewBox="0 0 395.52 111.85622922636104" height="111.85622922636104" width="395.52"><g><svg viewBox="0 0 395.52 111.85622922636104" height="111.85622922636104" width="395.52"><g><svg viewBox="0 0 395.52 111.85622922636104" height="111.85622922636104" width="395.52"><g id="textblocktransform"><svg viewBox="0 0 395.52 111.85622922636104" height="111.85622922636104" width="395.52" id="textblock"><g><svg viewBox="0 0 395.52 111.85622922636104" height="111.85622922636104" width="395.52"><g transform="matrix(1,0,0,1,0,0)"><svg width="395.52" viewBox="1.5 -38.7 174.49 49.35" height="111.85622922636104" data-palette-color="#481e14"><path d="M14.65 0.55L14.65 0.55Q9.1 0.55 5.3-4.1 1.5-8.75 1.5-15.5L1.5-15.5Q1.5-23.75 6.08-29.4 10.65-35.05 17.3-35.05L17.3-35.05Q19.9-35.05 22.13-34.52 24.35-34 25.3-33.45L25.3-33.45 26.2-32.9 22.8-25.95Q21.65-26.95 19.55-27.83 17.45-28.7 15.75-28.7L15.75-28.7Q12.3-28.7 10.23-25.85 8.15-23 8.15-17.73 8.15-12.45 10.3-9.08 12.45-5.7 16.15-5.7L16.15-5.7Q18.55-5.7 20.5-7.2 22.45-8.7 23.25-11.2L23.25-11.2 27.4-8.8Q25.75-4.4 22.35-1.93 18.95 0.55 14.65 0.55ZM45.05-12.65Q45.05-16.1 44.45-17.25 43.85-18.4 41.65-18.4 39.45-18.4 36.65-16.65L36.65-16.65 36.65-13 37.2-1.25 30.45 0 31.05-12.15 30.45-37.45 37.3-38.7 36.65-25.75 36.65-19.9Q37.4-20.9 38.35-21.85 39.3-22.8 41.3-24 43.3-25.2 45.57-25.2 47.85-25.2 49.4-23.43 50.95-21.65 50.95-18.6L50.95-18.6 50.65-13 51.2-1 44.45 0.25 45.05-12.65ZM61.7 0Q58.75 0 56.87-1.88 55-3.75 55-6.93 55-10.1 57.9-12.43 60.8-14.75 64.95-14.75L64.95-14.75 68.34-14.75 68.34-15.6Q68.34-18.05 67.34-18.95 66.34-19.85 63.59-19.85L63.59-19.85Q62.45-19.85 60.87-19.38 59.3-18.9 57.34-17.9L57.34-17.9 55.9-21.85Q58.05-23.35 61.12-24.55 64.2-25.75 66.2-25.75L66.2-25.75Q74.05-25.75 74.05-18.15L74.05-18.15 74.05-8.35Q74.05-5.55 75.8-2.1L75.8-2.1 70.5 0.15Q69.25-2.25 68.65-4.15L68.65-4.15Q65.9 0 61.7 0L61.7 0ZM63.8-5.1L63.8-5.1Q65.8-5.1 68.34-7.15L68.34-7.15 68.34-10.5Q65.7-11.1 64.05-11.1L64.05-11.1Q60.9-11.1 60.9-8.3L60.9-8.3Q60.9-6.85 61.7-5.98 62.5-5.1 63.8-5.1ZM79.19-24.2L82.09-24.2 82.09-29.65 88.84-30.95 88.19-24.2 94.24-24.2 93.69-20.1 87.99-20.1 87.74-9.65Q87.74-7.3 88.19-6.53 88.64-5.75 89.84-5.75 91.04-5.75 93.04-6.3L93.04-6.3 93.34-2.75Q90.04 0 87.54 0 85.04 0 83.44-1.83 81.84-3.65 81.84-6.6L81.84-6.6 82.14-12.2 82.09-20.1 78.64-20.1 79.19-24.2ZM126.39-0.85L119.19 0.25 116.74-9.5 104.79-9.5 102.14 0 95.74-0.5 100.14-12.65 106.84-34.15 115.79-34.8 122.24-13.4 126.39-0.85ZM115.24-14.8L111.29-28.3 110.64-28.3 106.34-14.8 115.24-14.8ZM143.39-25.25L143.39-25.25Q146.59-25.25 148.76-22.45 150.94-19.65 150.94-14.9L150.94-14.9Q150.94-8.25 147.51-4.13 144.09 0 138.99 0L138.99 0Q137.94 0 136.64-0.15L136.64-0.15 136.89 9.4 130.04 10.65 130.69-12.15 130.74-12.15Q130.54-18.85 129.64-24.15L129.64-24.15 135.69-25.45Q135.99-22.8 136.19-20.2L136.19-20.2Q136.29-20.45 137.21-21.58 138.14-22.7 139.94-23.98 141.74-25.25 143.39-25.25ZM141.44-18.75L141.44-18.75Q138.79-18.75 136.29-17.3L136.29-17.3 136.29-13 136.49-5.85Q139.19-5.4 140.59-5.4L140.59-5.4Q145.39-5.4 145.39-12.08 145.39-18.75 141.44-18.75ZM168.44-25.25L168.44-25.25Q171.64-25.25 173.81-22.45 175.99-19.65 175.99-14.9L175.99-14.9Q175.99-8.25 172.56-4.13 169.14 0 164.04 0L164.04 0Q162.99 0 161.69-0.15L161.69-0.15 161.94 9.4 155.09 10.65 155.74-12.15 155.79-12.15Q155.59-18.85 154.69-24.15L154.69-24.15 160.74-25.45Q161.04-22.8 161.24-20.2L161.24-20.2Q161.34-20.45 162.26-21.58 163.19-22.7 164.99-23.98 166.79-25.25 168.44-25.25ZM166.49-18.75L166.49-18.75Q163.84-18.75 161.34-17.3L161.34-17.3 161.34-13 161.54-5.85Q164.24-5.4 165.64-5.4L165.64-5.4Q170.44-5.4 170.44-12.08 170.44-18.75 166.49-18.75Z" opacity="1" transform="matrix(1,0,0,1,0,0)" fill="#481e14" class="wordmark-text-0" data-fill-palette-color="primary" id="text-0"></path></svg></g></svg></g></svg></g></svg></g><g></g></svg></g><defs></defs></svg><rect width="395.52" height="111.85622922636104" fill="none" stroke="none" visibility="hidden"></rect></g></svg></g></svg>